<?xml version="1.0" encoding="UTF-8"?>
<svg role="img" xmlns="http://www.w3.org/2000/svg" viewBox="0 0 1000 152" fill="none"> <title>Shop BFGoodrich brand tires</title> <path d="M249.067 1.61328L243.255 23.6643H186.881L181.392 44.193L233.798 44.0084L227.57 67.7202H176.456L164.877 106.102H129.816L158.372 1.61328H249.067V1.61328Z" fill="#C73A37"></path> <path fill-rule="evenodd" clip-rule="evenodd" d="M27.6776 35.8457L36.904 1.29297H113.575C122.432 1.29297 133.827 2.95372 138.717 11.6265C141.736 25.2917 136.684 39.4807 125.708 48.1629C122.096 49.9007 118.327 51.2909 114.452 52.3148C115.265 52.5813 116.108 52.8308 116.959 53.0829C121.709 54.4894 126.743 55.9804 128.66 60.9876C130.362 75.036 125.05 89.0236 114.452 98.4005C105.68 103.528 95.6866 106.19 85.527 106.105H8.39453L19.42 65.0472L27.6776 35.8457ZM62.3686 41.9343H90.9703C93.6917 41.6748 96.3715 41.0861 98.9511 40.1813C104.23 37.4511 104.481 31.1303 104.664 26.5314L104.671 26.3418C103.754 24.6281 102.108 23.4234 100.197 23.0664H67.074L63.9832 34.5994L62.3686 41.9343ZM51.574 81.4216L54.2958 70.0271L56.4178 62.646H89.5405C91.3466 62.9547 92.9202 64.0545 93.8308 65.6445C93.8272 65.7372 93.8237 65.8305 93.8202 65.9243C93.639 70.7325 93.4045 76.9546 88.1104 79.7147C85.5377 80.6356 82.8539 81.2096 80.1296 81.4216H51.574Z" fill="#C73A37"></path> <path d="M344.512 0.691978C353.554 2.26046 364.441 3.27536 369.054 12.4556C371.265 19.2787 370.921 26.6729 368.085 33.2611H332.61C332.241 30.6777 333.44 28.9247 331.18 26.5258C323.199 22.5123 314.203 23.5734 305.023 24.0808C298.103 25.1419 290.307 27.5407 286.985 33.6301L283.341 43.6407L276.79 68.5981C276.79 72.7499 275.729 78.8393 281.403 81.0998C291.389 83.2251 301.685 83.4598 311.758 81.7918C318.017 79.5929 322.614 74.2032 323.798 67.6754H299.256L305.715 46.4086H365.686C358.951 68.4135 355.814 100.844 326.566 104.304C320.461 105.356 314.3 106.049 308.114 106.38L270.009 106.103C258.753 104.212 244.037 103.197 239.193 89.8187C235.271 70.1665 245.42 51.9906 249.572 33.6301C255.047 17.191 269.329 5.2478 286.478 2.76791C296.729 1.08004 307.091 0.15486 317.478 0L344.512 0.691978Z" fill="#253F6A"></path> <path d="M799.188 1.61328L793.883 20.8964H761.176L766.435 1.61328H799.188V1.61328Z" fill="#253F6A"></path> <path d="M934.953 2.07422L925.265 41.0556C937.029 27.2161 956.635 27.2161 973.104 31.5063C978.348 34.1648 981.725 39.47 981.915 45.3459L981.085 52.8192L967.245 106.24H935.599C939.428 88.756 945.102 73.5786 948.377 55.4949C948.643 52.7709 946.879 50.2613 944.225 49.59C935.922 48.5751 926.88 49.2671 921.852 56.6943L919.268 62.5992L907.228 106.102H876.504L904.506 2.07422H934.953Z" fill="#253F6A"></path> <path d="M881.119 38.6138C883.759 45.0991 883.891 52.3348 881.488 58.9118H849.75C850.771 56.8724 851.187 54.5833 850.949 52.3149C849.196 48.5321 845.229 49.9161 842.092 49.0396C835.541 49.0396 828.252 47.8401 824.792 54.7599C820.05 63.8949 817.716 74.0883 818.011 84.3766C822.624 89.5895 831.343 86.637 837.617 86.8215C840.544 85.9662 842.953 83.8775 844.214 81.1012L845.552 75.5192L877.106 75.1963C875.537 85.7605 870.186 98.2622 859.253 103.106C844.721 109.334 825.484 106.704 809.384 106.704C800.896 106.381 790.655 103.798 786.318 95.1253C783.693 76.7392 788.145 58.042 798.774 42.8118C814.551 25.2817 842.092 28.9722 864.466 29.8026C870.693 31.5095 877.613 32.755 881.119 38.6138Z" fill="#253F6A"></path> <path d="M718.734 29.1102C717.747 32.1885 717.173 35.3841 717.027 38.6134C725.838 29.387 740.093 28.9257 752.041 29.1102C750.847 36.2074 748.978 43.1743 746.459 49.9157H722.378C716.273 51.4434 711.697 56.5112 710.799 62.7404L700.742 101.491L699.543 106.842H666.789L668.311 100.615L684.965 39.1209L687.364 29.1102H718.734Z" fill="#253F6A"></path> <path d="M777.321 83.0392L771.094 106.566H738.109L741.938 92.0349L749.873 61.7263L758.223 30.5411L758.915 28.9727H791.484L777.321 83.0392Z" fill="#253F6A"></path> <path fill-rule="evenodd" clip-rule="evenodd" d="M389.844 106.041C380.905 104.871 370.617 103.524 365.642 94.8488V94.7565C363.226 85.9546 366.696 70.5769 368.056 64.5504C368.229 63.786 368.367 63.172 368.456 62.741C369.367 58.8205 370.633 54.9911 372.239 51.3003C378.328 33.2627 396.135 29.4799 412.604 28.2344L442.221 28.6034C450.709 29.6183 461.458 31.8327 464.225 41.059C465.751 60.0837 460.739 79.0593 450.017 94.8488C436.832 107.907 415.698 107.211 397.716 106.619C396.132 106.566 394.572 106.515 393.044 106.474C392.005 106.323 390.935 106.183 389.844 106.041ZM415.234 48.624C403.378 48.624 401.625 56.8354 400.056 64.5856C400.056 64.5856 398.165 73.5352 397.196 75.934C396.161 78.8106 396.84 82.025 398.949 84.2377C406.007 86.3137 417.125 87.6515 423.537 83.0383C428.721 73.7747 431.571 63.3879 431.841 52.7758C430.1 48.3095 425.04 48.5189 420.405 48.7108C418.529 48.7884 416.722 48.8632 415.234 48.624Z" fill="#253F6A"></path> <path fill-rule="evenodd" clip-rule="evenodd" d="M491.366 106.037C482.458 104.868 472.153 103.515 467.224 94.8488V94.7565C464.852 86.1107 468.158 71.1202 469.534 64.8797C469.737 63.9612 469.897 63.2323 469.992 62.741C470.92 58.8195 472.201 54.9902 473.821 51.3003C479.864 33.2627 497.717 29.4799 514.186 28.2344L543.803 28.6034C552.291 29.6183 563.04 31.8327 565.808 41.059C567.289 60.0797 562.281 79.0409 551.599 94.8488C538.374 107.905 517.28 107.211 499.271 106.619C497.681 106.567 496.115 106.515 494.58 106.474C493.538 106.322 492.463 106.181 491.366 106.037ZM516.77 48.624C504.96 48.624 503.161 56.8354 501.639 64.5856C501.639 64.5856 499.747 73.5352 498.732 76.1647C497.697 79.0412 498.376 82.2557 500.485 84.4684C507.59 86.5443 518.661 87.8822 525.074 83.269C530.324 73.9491 533.178 63.471 533.377 52.7758C531.67 48.3105 526.621 48.5188 521.973 48.7107C520.09 48.7884 518.273 48.8633 516.77 48.624Z" fill="#253F6A"></path> <path fill-rule="evenodd" clip-rule="evenodd" d="M680.813 20.0191L672.14 52.3114L660.054 97.0132L657.655 106.562L625.362 106.286C626.081 102.96 626.529 99.5811 626.7 96.1828C619.394 107.225 605.477 107.061 593.284 106.917C591.926 106.901 590.59 106.885 589.287 106.885C580.799 105.501 570.419 102.272 567.652 93.0458C567.098 76.0693 572.634 60.9842 578.908 45.7146C585.167 36.2983 595.333 30.1992 606.587 29.1071L629.653 29.4762C635.346 30.2311 640.146 34.0895 642.108 39.4868C644.831 32.7316 646.681 25.6046 648.535 18.4641C650.011 12.7799 651.489 7.08704 653.411 1.56641H685.426L680.813 20.0191ZM603.541 85.1589C612.214 87.3271 623.655 89.034 629.698 80.5457C632.949 71.9256 635.359 63.0114 636.895 53.9277C634.785 48.5812 628.633 48.7403 622.89 48.8887C621.349 48.9285 619.838 48.9676 618.442 48.8993C608.081 49.8063 605.951 59.1556 603.952 67.9294C603.307 70.7576 602.677 73.526 601.788 75.9325C600.647 79.0976 601.318 82.6332 603.541 85.1589Z" fill="#253F6A"></path> <path d="M863.219 128.105L852.24 150.11H0L10.9332 128.105H863.219V128.105Z" fill="#253F6A"></path> <path d="M885.734 122.986H875.631L876.969 119.434H901.096L899.758 122.94H889.701L879.229 150.388H875.262L885.734 122.986Z" fill="#253F6A"></path> <path fill-rule="evenodd" clip-rule="evenodd" d="M902.754 123.914H906.306L908.013 119.301H904.461L902.754 123.914ZM892.605 150.485H896.158L904.692 128.157H901.14L892.605 150.485Z" fill="#253F6A"></path> <path d="M910.643 128.154H914.195L912.858 131.66V131.66C914.511 129.555 916.842 128.088 919.454 127.508H921.438L920.008 131.244C918.79 131.238 917.578 131.409 916.41 131.752C913.306 133.026 910.948 135.639 909.997 138.856L905.384 150.481H901.832L910.643 128.154Z" fill="#253F6A"></path> <path fill-rule="evenodd" clip-rule="evenodd" d="M921.805 145.363C921.435 143.799 921.665 142.152 922.451 140.75L938.413 140.704C940.104 137.654 940.581 134.079 939.75 130.693C938.708 128.709 936.64 127.479 934.399 127.51C931.014 127.409 927.717 128.596 925.173 130.831C922.466 133.135 920.387 136.087 919.13 139.412C917.871 142.038 917.53 145.011 918.161 147.854C919.36 150.271 921.936 151.687 924.619 151.406C927.817 151.354 930.898 150.197 933.338 148.131C934.848 146.839 936.1 145.274 937.029 143.518H933.43C931.762 146.213 928.89 147.932 925.726 148.131C923.921 148.28 922.269 147.114 921.805 145.363ZM936.337 132.444C936.814 134.158 936.684 135.983 935.968 137.611H923.789C924.708 135.625 926.027 133.85 927.664 132.398C929.168 130.993 931.196 130.29 933.246 130.461C934.953 130.645 936.337 131.429 936.337 132.444Z" fill="#253F6A"></path> <path d="M943.997 143.929C943.577 144.782 943.58 145.783 944.006 146.635C944.431 147.486 945.23 148.089 946.165 148.265C947.176 148.396 948.199 148.396 949.21 148.265C950.307 148.051 951.375 147.711 952.393 147.25C953.465 146.625 954.306 145.67 954.792 144.528C955.08 143.986 955.101 143.341 954.848 142.781C954.595 142.222 954.097 141.811 953.5 141.668C950.966 141.181 948.492 140.423 946.119 139.408C944.643 138.808 943.72 137.24 944.966 133.964C946.858 129.807 951.057 127.189 955.622 127.321C962.957 127.321 962.173 131.934 961.25 134.195H957.79C958.206 133.042 959.036 130.643 954.1 130.643C952.117 130.694 950.238 131.542 948.887 132.995C947.918 134.149 947.78 135.44 948.887 136.086C950.341 136.849 951.893 137.408 953.5 137.747C955.169 137.864 956.77 138.456 958.113 139.454C959.636 140.607 959.543 142.775 958.436 144.99C957.101 147.418 954.965 149.309 952.393 150.341C950.908 150.868 949.354 151.179 947.78 151.264C946.388 151.33 944.993 151.221 943.628 150.941C939.015 149.741 940.03 145.774 940.814 143.698L943.997 143.929Z" fill="#253F6A"></path> <path fill-rule="evenodd" clip-rule="evenodd" d="M992.897 18.8672C988.974 18.8672 985.793 22.0479 985.793 25.9715C985.793 29.8951 988.974 33.0758 992.897 33.0758C996.821 33.0758 1000 29.8951 1000 25.9715C1000 22.0479 996.821 18.8672 992.897 18.8672ZM992.897 20.206C996.082 20.206 998.664 22.7878 998.664 25.9725C998.664 27.5019 998.056 28.9686 996.975 30.05C995.893 31.1315 994.427 31.739 992.897 31.739C989.713 31.739 987.131 29.1573 987.131 25.9725C987.131 22.7878 989.713 20.206 992.897 20.206ZM996.403 29.8003H994.696L992.943 26.571H991.467V29.8003H989.945V22.1885H993.681C994.389 22.1351 995.099 22.2456 995.757 22.5114C996.375 22.9745 996.708 23.7263 996.634 24.4951C996.634 25.9252 995.896 26.4788 994.558 26.571L996.403 29.8003ZM995.157 24.3098C995.157 25.4631 994.557 25.4631 993.727 25.4631H991.466V23.2488H993.312C993.361 23.2488 993.413 23.2484 993.465 23.2479C994.194 23.242 995.157 23.2342 995.157 24.3098Z" fill="#253F6A"></path> </svg>
