<?xml version="1.0" encoding="UTF-8"?>
<svg role="img" xmlns="http://www.w3.org/2000/svg" viewBox="0 0 135 25" fill="none"> <title>Shop Continental brand tires</title> <path fill-rule="evenodd" clip-rule="evenodd" d="M127.555 8.2793C126.802 7.46552 126.112 6.59459 125.492 5.67433C125.903 4.90703 126.198 2.83533 126.014 2.0335C125.769 1.58589 125.482 1.16205 125.159 0.767458C125.141 0.749561 125.12 0.726834 125.094 0.700502L125.094 0.700496C124.882 0.478465 124.425 0.000159907 124.192 0.000159907C124.146 -0.00123711 124.1 0.0122009 124.062 0.0385248L124.139 0.725256C123.414 1.18947 122.467 1.82249 121.612 2.45551C121.612 2.70282 121.625 2.94995 121.65 3.19596C121.78 3.31047 121.931 3.39787 122.095 3.453C122.638 3.32058 123.191 3.22826 123.748 3.17677L122.727 4.71137L121.558 5.5554L120.089 5.09118C120.001 5.06711 119.906 5.09712 119.848 5.16791L118.77 6.31886C118.702 6.37995 118.668 6.46988 118.678 6.56056L118.64 7.88031C118.64 7.88031 118.62 8.08364 118.62 8.30616C118.589 8.80657 118.741 9.30126 119.046 9.6988L119.752 8.6783C119.623 8.44322 119.524 8.19326 119.456 7.93402C119.456 7.89949 119.476 6.80226 119.476 6.80226L120.162 6.29967L121.984 7.58106C122.268 8.10489 122.598 8.60295 122.969 9.06962C123.284 9.45327 124.863 10.5198 125.623 10.9648C125.719 11.4498 125.847 11.9279 126.006 12.3959L128.238 14.6978L126.915 16.3513C126.451 16.6467 126.006 17.1876 126.045 17.6864H127.578L127.747 16.8155L129.565 14.7898C129.661 14.6786 129.661 14.621 129.603 14.4561L129.082 12.7104C129.565 12.1829 129.853 11.5061 129.899 10.7922C129.899 9.56982 128.893 9.03854 128.161 8.6518C127.923 8.52631 127.715 8.41605 127.578 8.30232L127.555 8.2793ZM117.934 5.34823L119.345 4.96458V4.95307C119.392 4.93751 119.443 4.95108 119.476 4.9876L118.471 6.01961L118.195 6.15005C117.987 6.3252 117.795 6.51772 117.62 6.72553L116.412 6.44546C116.427 6.28049 116.745 5.96207 117.025 5.77791C117.316 5.60993 117.62 5.46622 117.934 5.34823ZM125.048 15.4113L126.758 13.777L127.463 14.4829L125.623 16.0444C125.484 16.2548 125.365 16.4784 125.27 16.7119H123.916C123.989 16.2093 124.683 15.561 125.067 15.4113H125.048ZM134.132 18.8642H115.982V18.2657H134.132V18.8642ZM130.033 9.83691C130.207 10.2058 130.343 10.5914 130.439 10.9879L130.662 14.2796C131.107 14.6693 131.608 14.9888 132.15 15.2272C132.115 14.1875 131.831 11.2871 131.348 10.5812L130.255 9.83691C130.106 9.76018 130.033 9.83691 130.033 9.83691Z" fill="black"></path> <path fill-rule="evenodd" clip-rule="evenodd" d="M16.5151 0C16.5151 0 19.5067 2.99227 20.8836 4.53444V5.68531C19.6026 4.33112 16.9447 3.19559 14.4709 3.19559C8.87889 3.21477 5.36952 7.43464 5.36952 12.6596C5.36952 17.8846 8.69479 22.0814 14.4709 22.0814C16.9121 22.0894 19.2496 21.0951 20.9373 19.3308V20.4433C19.1769 22.8371 15.9973 24.3985 12.0201 24.3985C4.90544 24.3985 0 19.2311 0 12.6596C0 6.08811 5.4424 0.92837 12.0201 0.92837C13.5498 0.919787 15.0698 1.17145 16.5151 1.6726V0ZM93.9667 16.7605V7.58041L95.8613 7.59959V6.44872H93.9667V3.10352H93.2418C91.8879 4.23904 90.1773 5.59324 88.7084 6.74411V7.58041H90.0277V16.0585C90.0277 18.0649 91.1783 19.0124 93.096 19.0124C94.7491 19.0124 95.4893 18.5482 95.4893 18.5482V17.3974C95.2572 17.4779 95.0139 17.522 94.7683 17.5278C94.5543 17.5567 94.3388 17.4865 94.1828 17.3372C94.0267 17.1879 93.9472 16.9756 93.9667 16.7605ZM83.289 10.3579C83.289 9.24534 82.9361 8.37068 81.9696 8.37068C81.0031 8.37068 80.6119 9.24534 80.6119 10.3579V17.6889H81.7625V18.8628H75.5569V17.6889H76.7075V7.58042H75.5569V6.42954H80.4278V8.32465H80.4815C81.0422 7.01834 82.3318 6.17607 83.7531 6.18786C85.3354 6.11959 86.7311 7.21586 87.04 8.76965C87.157 9.43193 87.2134 10.1035 87.2087 10.776V17.6812H88.693V18.8551H83.289V10.3579ZM58.2248 10.3579C58.2248 9.24534 57.872 8.37068 56.9054 8.37068C55.9389 8.37068 55.5516 9.24534 55.5516 10.3579V17.6889H56.683V18.8628H50.4774V17.6889H51.628V7.58042H50.4774V6.42954H55.3636V8.32465H55.4212C55.9853 7.02905 57.2684 6.19559 58.6812 6.20704C60.2645 6.13848 61.6614 7.23446 61.972 8.78883C62.0878 9.45122 62.143 10.1228 62.1369 10.7952V17.7004H63.625V18.8743H58.2171L58.2248 10.3579ZM71.0081 16.703C72.0459 16.754 73.0506 16.3306 73.7389 15.5521L74.3909 16.1506C73.4973 17.9191 71.9746 19.07 69.5583 19.07C65.8112 19.07 63.8935 16.2311 63.8935 12.6596C63.8935 9.08806 65.8227 6.2032 69.5583 6.2032C73.294 6.2032 74.7246 8.80418 74.7246 12.2952C74.7246 12.5215 74.7054 12.9665 74.6862 13.189H68.0549C68.1278 16.07 69.8575 16.703 71.0081 16.703ZM68.0549 11.9844C68.0549 8.71594 68.3119 7.48834 69.4279 7.48834C70.544 7.48834 70.7857 8.67757 70.824 11.9844H68.0549ZM14.9196 7.15459C13.6348 7.15459 13.2819 8.82719 13.2819 12.6174C13.2819 16.4076 13.6386 18.0802 14.9196 18.0802C16.2006 18.0802 16.5535 16.4114 16.5535 12.6174C16.5535 8.82336 16.2045 7.15459 14.9196 7.15459ZM8.67945 12.6558C8.67945 16.4076 10.9807 19.4574 14.9234 19.4574C18.8662 19.4574 21.1598 16.4076 21.1598 12.6596C21.1598 8.91159 18.8585 5.85794 14.9196 5.85794C10.9807 5.85794 8.67562 8.90008 8.67562 12.6596L8.67945 12.6558ZM28.6311 8.37068C29.5937 8.37068 29.9504 9.24534 29.9504 10.3579V18.8551H35.3545V17.6812H33.8702V10.776C33.8749 10.1035 33.8184 9.43193 33.7014 8.76965C33.3926 7.21586 31.9969 6.11959 30.4145 6.18786C28.993 6.17504 27.7029 7.01765 27.1429 8.32465H27.0892V6.42954H22.203V7.58042H23.3536V17.6889H22.203V18.8628H28.424V17.6889H27.2733V10.3579C27.2733 9.23767 27.6684 8.37068 28.6311 8.37068ZM44.0032 3.15723C44.0032 4.25439 44.9889 4.97944 46.4004 4.97944C47.8118 4.97944 48.7975 4.25439 48.7975 3.15723C48.7975 2.06006 47.8118 1.33885 46.408 1.33885C45.0043 1.33885 44.0109 2.0639 44.0109 3.15723H44.0032ZM40.6204 16.7605V7.58041L42.1469 7.59959V6.44872H40.6128V3.10352H39.8879C38.5302 4.23904 36.8234 5.59324 35.3545 6.74411V7.58041H36.6777V16.0585C36.6777 18.0649 37.8283 19.0124 39.746 19.0124C41.399 19.0124 42.1431 18.5482 42.1431 18.5482V17.3974C41.9097 17.4782 41.6651 17.5222 41.4182 17.5278C41.2045 17.5569 40.9892 17.4867 40.8338 17.3372C40.6783 17.1877 40.5997 16.9753 40.6204 16.7605ZM113.109 17.6889H114.643V18.8628H109.197V2.99227H107.812V1.84139H113.09L113.109 17.6889ZM101.775 12.4448C102.084 12.4118 102.392 12.5044 102.631 12.7018V16.5189C102.392 16.7754 102.053 16.9154 101.703 16.9025C100.698 16.9025 100.345 15.9741 100.345 14.7849C100.345 13.5956 100.606 12.4448 101.775 12.4448ZM102.788 17.3743H102.734C102.048 18.4627 100.841 19.1118 99.5548 19.0853C97.5297 19.0853 96.2679 17.3552 96.2679 15.2951C96.2679 12.8054 98.0322 11.2248 100.87 11.2248C101.471 11.203 102.07 11.2914 102.638 11.4857V10.7185C102.638 9.21465 101.71 8.41671 100.337 8.41671C99.2151 8.42815 98.1632 8.96488 97.4952 9.86681L96.8087 9.03051C97.8642 7.30887 99.7296 6.24992 101.749 6.22622C104.759 6.22622 106.539 8.01007 106.539 10.7223V17.6889H107.805V18.8628H102.788V17.3743ZM43.2784 17.6889V18.8628L49.4763 18.8436V17.6697H48.3257V6.42954H43.2784V7.58041H44.429V17.6889H43.2784Z" fill="black"></path> </svg>
