<?xml version="1.0" encoding="UTF-8"?>
<svg role="img" xmlns="http://www.w3.org/2000/svg" viewBox="0 0 136 27" fill="none"> <title>Shop Falken brand tires</title> <path d="M103.4 19.4h5.6l-.4 2.4-1.5-.1-.8 5h-2.7l.8-5-1.5.1.5-2.4m6.3 0h2.7l-1.2 7.4h-2.7l1.2-7.4m3.9 0h3.2c1.7 0 3 .7 2.7 2.6-.2 1.1-.7 1.6-1.7 1.9v.1c.1.1.3.2.4.4l1.2 2.4h-3.1l-.8-2.4h-.1l-.4 2.4h-2.6l1.2-7.4m2.1 3.2h.2c.4 0 .9-.1 1-.6.1-.6-.3-.6-.8-.6h-.2l-.2 1.2zm5.3-3.2h4.9l-.3 2h-2.3l-.1.7h2.1L125 24h-2.1l-.1.7h2.3l-.3 2h-5l1.2-7.3m5.8 4.7.1.1c.4.4.9.7 1.6.7.3 0 .7-.1.7-.4.1-.3-.3-.4-.5-.4l-.5-.1c-1-.2-1.8-.8-1.6-1.9.3-1.7 2-2.7 3.6-2.7.8 0 1.6.2 2.2.7l-1 1.9c-.4-.3-.9-.6-1.5-.6-.2 0-.6.1-.6.4-.1.3.3.3.5.4l.6.1c1.1.3 1.8.9 1.6 2.1-.3 1.8-2 2.6-3.6 2.6-.9 0-2-.3-2.7-.7l1.1-2.2M12 5.7 10.1 15H3.6L5.8 4.3C6.7.7 10.6 0 11.8 0h19l-4.2 4.4h-13c-.9 0-1.4.4-1.6 1.3m6.7 9.2L31.8 1.8C33.1.5 35.7 0 36.8 0h9.4L43 14.9h-6.4l2.6-13-9 9h6.7l-2.7 3.8-15.5.2m26.9 0L48.7 0h6.6L53 10.9h12.7l-2.9 4H45.6M68.5 0l-3.2 14.9H72l1.4-7.3 7.1 7.2h7.7l-7.3-7.1L91.8 0h-9.3l-9 7 1.6-7h-6.6" fill="#004e96"></path> <path d="M88.5 14.9H108l3.2-4H95.7l.3-1.6h12.1l.7-3.5h-12c.3-.9.5-1.5 1.3-1.6h13l.9-4.1H96.4c-2.6 0-5 1-5.8 4.3l-2.1 10.5m22.7 0L114.3 0h15.6c3 0 6.1 1.6 5.4 4.9l-2.1 10h-6.6l2-9.2c.2-.6-.2-1.5-1.1-1.5h-7.3L118 15l-6.8-.1" fill="#004e96"></path> <path d="M0 7h24.6L18 13.7C13.2 9.5 7.1 7.7.3 7.6L0 7" fill="#ed1651"></path> </svg>
