<?xml version="1.0" encoding="UTF-8"?>
<svg role="img" xmlns="http://www.w3.org/2000/svg" viewBox="0 0 133 25" fill="none"> <title>Shop Goodyear brand tires</title> <mask id="goodyear-mask0_33_7691" maskUnits="userSpaceOnUse" x="0" y="0" width="133" height="25" style="mask-type: luminance;"> <path fill-rule="evenodd" clip-rule="evenodd" d="M0.221191 0.652222H132.225V24.7665H0.221191V0.652222Z" fill="white"></path> </mask> <g mask="url(#goodyear-mask0_33_7691)"> <path fill-rule="evenodd" clip-rule="evenodd" d="M12.8875 7.4178C13.1433 7.56644 13.1433 7.80233 13.0336 7.96671L12.1736 9.26645C12.0637 9.43082 11.936 9.50514 11.6429 9.32098C11.0396 8.95452 10.235 8.68139 9.39228 8.68139C8.36988 8.68139 7.41837 8.97275 7.21769 9.70473L5.58951 16.6174C5.42436 17.2948 5.93696 17.6234 6.65087 17.6234H7.08899C7.27129 17.6234 7.38207 17.5326 7.41837 17.3494L8.35087 13.3805C8.38795 13.1981 8.58848 13.0158 8.80894 13.0158H13.8373C14.0207 13.0158 14.1484 13.1981 14.1121 13.3805L12.7225 19.2706C12.6852 19.4531 12.4467 19.6363 12.2643 19.6363H5.11399C1.65696 19.6363 0.211853 16.9656 0.211853 14.4056C0.211853 9.06437 4.31034 6.48608 9.15545 6.48608C10.5643 6.48608 11.8071 6.79723 12.8875 7.4178ZM29.8042 12.1196C29.8042 16.0875 27.1162 19.911 21.9029 19.911C18.3186 19.911 15.4848 18.1177 15.4848 14.3322C15.4848 9.6502 18.9047 6.48608 23.64 6.48608C27.2441 6.48608 29.8042 8.31494 29.8042 12.1196ZM24.5 9.77828C24.7204 8.8827 24.4447 8.46094 23.7508 8.46094C22.927 8.46094 22.7084 8.82755 22.4517 9.92427L20.8606 16.599C20.66 17.46 20.806 17.9344 21.5925 17.9344C22.361 17.9344 22.6349 17.5689 22.8544 16.6718L24.5 9.77828ZM45.4236 12.1196C45.4236 16.0875 42.7356 19.911 37.5222 19.911C33.9372 19.911 31.1023 18.1177 31.1023 14.3322C31.1023 9.6502 34.5231 6.48608 39.2585 6.48608C42.8626 6.48608 45.4236 8.31494 45.4236 12.1196ZM40.1195 9.77828C40.3389 8.8827 40.064 8.46094 39.3691 8.46094C38.5465 8.46094 38.3269 8.82755 38.0711 9.92427L36.4791 16.599C36.2786 17.46 36.4245 17.9344 37.2111 17.9344C37.9795 17.9344 38.2534 17.5689 38.4729 16.6718L40.1195 9.77828ZM56.0309 6.76091C59.6704 6.76091 61.0429 9.15581 61.0429 11.607C61.0429 15.6113 58.3724 19.6363 53.7449 19.6363H45.8617C45.6793 19.6363 45.5515 19.4531 45.5877 19.2706L48.4598 7.12659C48.5324 6.85175 48.6413 6.76091 48.917 6.76091H56.0309ZM55.6282 9.77829C55.8296 8.91901 55.5746 8.77224 54.2756 8.77224C54.0924 8.77224 53.9462 8.86292 53.9101 9.04709L51.9524 17.2949C51.8978 17.5326 51.9704 17.6235 52.1529 17.6235C53.3429 17.6235 53.7812 17.6235 53.9835 16.8005L55.6282 9.77829ZM63.2737 21.0079C61.8467 22.3433 59.9816 23.4045 59.2486 23.4045C58.9937 23.4045 58.8831 23.2032 58.8831 23.0198C58.8831 21.5203 60.5305 20.752 61.17 19.5265C61.7559 18.3925 61.9936 17.2042 62.431 16.0322C62.8891 14.88 63.31 13.4358 64.1699 12.3935C64.9737 13.9656 65.9988 15.867 66.7481 17.46C65.724 18.5022 64.5174 19.8194 63.2737 21.0079ZM73.0755 13.5637C73.2224 13.6736 73.4057 13.9294 73.4247 14.2223C68.1008 16.8377 65.2857 22.8194 59.7975 24.7762C59.616 24.5367 59.5244 24.318 59.4501 24.0614C64.7551 22.1781 67.4612 16.123 73.0755 13.5637ZM62.6876 6.37641C64.5537 5.16985 66.2909 4.23641 67.9746 3.37729C67.8457 3.88896 67.7723 4.43771 67.7723 5.00563C67.7723 5.40667 67.8094 5.88204 67.9746 6.24927L64.0239 8.51548C63.5286 7.78521 63.036 7.03501 62.6876 6.37641ZM64.4248 11.2424C64.463 10.7669 64.5174 10.3088 64.5174 9.83264C64.5174 9.65019 64.5174 9.46619 64.4801 9.26644C65.9079 9.26644 66.5095 9.43082 67.6081 9.52228V9.6692C66.5658 10.2354 65.5052 10.875 64.4248 11.2424ZM68.4127 10.1447C68.7602 11.0582 69.2545 11.8075 69.9867 12.5412C70.754 12.3028 70.8811 11.3867 71.5586 11.0582L72.7843 12.9605C70.8631 14.186 68.9417 15.4107 67.278 17.0392C66.328 15.32 65.4691 13.7479 64.6998 12.1006C65.9253 11.3867 67.1318 10.6555 68.4127 10.1447ZM68.2295 6.88883H68.449L68.3021 8.73499C68.0282 8.77222 67.7533 8.77222 67.4612 8.77222C66.8207 8.77222 66.163 8.73499 65.2857 8.66238L68.2295 6.88883ZM86.4651 0.780139C86.4651 3.08514 83.2829 3.74202 81.0313 3.74202C79.8991 3.74202 78.7098 3.63405 77.6131 3.57873V3.72472L78.6363 4.12671C78.6001 4.89499 77.3745 4.78514 76.7159 5.05827C76.8446 5.22436 77.1352 5.11452 77.1352 5.31582V5.37035C76.6979 5.86379 76.0756 6.04796 75.4548 6.04796C75.0505 6.04796 74.6313 5.97441 74.2466 5.80941L74.1187 5.93733V6.37639C74.1187 6.74285 74.027 8.24233 73.5889 8.24233C73.3331 8.24233 73.1689 8.0228 72.9303 7.89488C72.7471 8.38754 72.8206 9.08338 72.4359 9.50514C72.1067 9.50514 71.8517 9.06437 71.5586 8.95452C71.1932 9.74197 70.9718 10.5829 70.3877 11.2958C69.2899 11.1143 69.0704 9.33906 69.0704 8.25963C69.0704 7.83864 69.1084 7.38244 69.1992 6.96145C68.7784 6.34009 68.449 5.53457 68.449 4.73077C68.449 1.80332 71.577 0.926129 73.7913 0.926129C76.0201 0.926129 78.1618 1.20097 80.447 1.20097C82.4774 1.20097 84.562 1.01868 86.4651 0.652222V0.780139ZM70.8811 6.54234L70.6616 5.51729L69.857 5.44375L69.9477 5.59067C70.5154 5.6452 70.4058 6.39354 70.8811 6.54234ZM74.7765 2.39023L74.4836 2.44555C74.2112 2.44555 73.9183 2.27961 73.6988 2.27961C73.5511 2.27961 73.4057 2.37045 73.2951 2.57175C72.9848 2.86653 72.4913 2.82852 72.1067 2.88289C71.9805 3.34003 71.4664 3.61409 71.0636 3.67018C71.2468 3.7618 71.4664 3.83456 71.723 3.83456C71.8327 3.83456 71.9607 3.81555 72.0885 3.7618C72.3263 3.41279 72.7843 3.35748 73.2044 3.35748C73.7913 3.35748 73.7178 2.70044 74.1187 2.70044L74.283 2.7369C74.4663 2.68237 74.7765 2.55445 74.7765 2.39023ZM78.0158 14.0573L75.8386 7.12659C75.7652 6.88883 75.856 6.76091 76.0946 6.76091H81.4531C81.6908 6.76091 81.8541 6.90612 81.9275 7.12659L83.1729 11.1308L86.3907 7.12659C86.574 6.90612 86.7754 6.76091 87.0684 6.76091H89.6284C89.8496 6.76091 89.8852 6.88883 89.682 7.12659L83.9042 14.1315L82.6769 19.2706C82.6431 19.4531 82.4038 19.6363 82.2214 19.6363H77.0444C76.8627 19.6363 76.735 19.4531 76.772 19.2706L78.0158 14.0573ZM101.022 6.76091C101.204 6.76091 101.333 6.94243 101.296 7.12659L100.929 8.68138C100.894 8.8629 100.657 9.04706 100.473 9.04706H96.5797C96.4156 9.04706 96.1762 9.22935 96.1389 9.4118L95.6092 11.6433C95.5903 11.7902 95.6636 11.8628 95.8296 11.8628H98.2245C98.4078 11.8628 98.5348 12.046 98.4994 12.2292L98.151 13.7833C98.1156 13.9656 97.8763 14.1497 97.6939 14.1497H95.3163C95.152 14.1497 95.0241 14.2223 94.9878 14.3502L94.3292 17.0753C94.2912 17.2585 94.3465 17.3494 94.5305 17.3494H98.4994C98.6826 17.3494 98.8115 17.5326 98.7733 17.7166L98.4078 19.2706C98.3705 19.4531 98.1339 19.6363 97.9505 19.6363H88.1643C87.982 19.6363 87.8539 19.4531 87.8911 19.2706L90.7616 7.12659C90.8348 6.85175 90.9456 6.76091 91.2195 6.76091H101.022ZM113.423 19.2706C113.44 19.4531 113.276 19.6363 113.092 19.6363H108.064C107.827 19.6363 107.679 19.4729 107.663 19.2706L107.515 17.8981C107.497 17.7166 107.386 17.6235 107.205 17.6235H103.308C103.125 17.6235 102.98 17.7166 102.869 17.8981L102.029 19.2706C101.918 19.4531 101.717 19.6363 101.442 19.6363H99.5779C99.3957 19.6363 99.3222 19.4531 99.4311 19.2706L106.803 7.0911C106.966 6.79725 107.205 6.72386 107.386 6.72386H111.738C111.959 6.72386 112.123 6.86985 112.141 7.0911L113.423 19.2706ZM106.875 15.32C107.058 15.32 107.15 15.2284 107.131 15.0461L106.803 11.8447C106.783 11.6805 106.656 11.6632 106.545 11.8447L104.662 15.0461C104.552 15.2284 104.589 15.32 104.771 15.32H106.875ZM125.933 6.76091C129.425 6.76091 130.56 8.42477 130.56 10.2725C130.56 11.3866 130.157 13.6907 128.053 14.9545C127.962 15.0088 127.781 15.1195 127.854 15.4289L128.695 19.2525C128.73 19.4531 128.658 19.6363 128.42 19.6363H123.042C122.86 19.6363 122.658 19.5264 122.603 19.2706L121.928 16.1437C121.89 15.9596 121.854 15.8134 121.673 15.8134H121.488C121.305 15.8134 121.177 15.9041 121.121 16.1609L120.391 19.2706C120.355 19.4531 120.117 19.6363 119.933 19.6363H114.758C114.575 19.6363 114.447 19.4531 114.483 19.2706L117.355 7.12659C117.427 6.85175 117.536 6.76091 117.811 6.76091H125.933ZM124.524 9.77829C124.724 8.91901 124.469 8.77224 123.171 8.77224C122.987 8.77224 122.841 8.86292 122.804 9.04709L121.761 13.4721C121.708 13.7107 121.78 13.8014 121.963 13.8014C123.153 13.8014 123.572 13.8014 123.773 12.9787L124.524 9.77829ZM131.072 17.3494C131.711 17.3494 132.225 17.8618 132.225 18.5022C132.225 19.1419 131.711 19.6536 131.072 19.6536C130.432 19.6536 129.92 19.1419 129.92 18.5022C129.92 17.8618 130.432 17.3494 131.072 17.3494ZM131.072 19.3986C131.565 19.3986 131.968 18.9958 131.968 18.5022C131.968 18.0071 131.565 17.606 131.072 17.606C130.578 17.606 130.175 18.0071 130.175 18.5022C130.175 18.9958 130.578 19.3986 131.072 19.3986ZM131.256 18.593L131.602 19.1609H131.328L131.017 18.612H130.869V19.1609H130.615V17.8791H131.09C131.328 17.8791 131.583 17.9344 131.583 18.2291C131.583 18.4288 131.456 18.5577 131.256 18.593ZM131.108 18.4106C131.237 18.4106 131.328 18.3925 131.328 18.2291C131.328 18.1549 131.31 18.0831 131.108 18.0831H130.869V18.4106H131.108Z" fill="#0B1D45"></path> </g> </svg>
