<?xml version="1.0" encoding="UTF-8"?>
<svg role="img" xmlns="http://www.w3.org/2000/svg" viewBox="0 0 136 27" fill="none"> <title>Shop Michelin brand tires</title> <path d="M6.12623 24.1602L5.25275 26.5514H113.66L114.541 24.1602H6.12623Z" fill="#FFE600"></path> <path fill-rule="evenodd" clip-rule="evenodd" d="M63.3494 16.2988C63.3099 12.5401 67.1121 10.4769 69.9183 9.89987V9.89592C71.9299 9.48584 74.0053 9.5047 76.009 9.95125L74.6059 13.3148C74.2067 12.3978 73.1672 12.3741 72.7443 12.3741C71.8832 12.3596 71.0301 12.5421 70.2503 12.9077C68.8314 13.5559 67.5983 15.6506 69.6021 16.4411C70.5576 16.824 71.7367 16.6201 72.9826 16.4047L72.9828 16.4047L72.9833 16.4046C73.1906 16.3688 73.3997 16.3327 73.6099 16.2988L72.4953 19.196C71.3417 19.4117 70.174 19.5438 69.0014 19.5912C65.9936 19.6742 63.3731 18.4687 63.3494 16.2988ZM83.8466 13.2555L85.1272 9.80895H89.5302L86.0047 19.3738H81.5938L82.7795 16.1368H80.4436L79.2579 19.3738H74.8549L78.3686 9.80895H82.7874L81.5187 13.2555H83.8466ZM58.8397 9.80895L55.3339 19.3778H59.9701L63.4877 9.81291L58.8397 9.80895ZM46.2433 14.9511L49.6226 9.80895L56.1678 9.81291L52.6462 19.3778H48.4211L50.919 12.5796L46.3421 19.3778H42.611L43.1486 12.461L40.5953 19.3778H36.3978L39.9194 9.81291H45.2947C46.5121 9.81291 46.5516 11.1212 46.5121 11.6152C46.4607 12.2634 46.2433 14.9511 46.2433 14.9511ZM131.367 9.80897L128.952 16.3739C128.983 15.7139 129.118 13.1013 129.197 11.5994C129.267 11.0958 129.124 10.5857 128.802 10.1924C128.58 9.95976 128.28 9.8187 127.96 9.79711H122.576L119.059 19.362H122.968L125.462 12.5875L125.165 19.362H131.722L135.244 9.79711L131.367 9.80897ZM111.664 19.3738L115.181 9.80895H119.818L116.3 19.3738H111.664ZM95.5933 12.3148H100.878L101.806 9.80895H92.1467L88.6251 19.3738H98.4153L99.3639 16.7929H93.9491L94.3443 15.7297H99.3757L100.241 13.3582H95.2059L95.5933 12.3148ZM104.372 9.80895H108.877L106.526 16.2119H111.083L109.897 19.3738H100.846L104.372 9.80895Z" fill="#27509B"></path> <path d="M1.15408 6.42173V6.4494L1.22523 6.61935C1.50795 7.31488 1.82858 7.9944 2.18566 8.65485C2.39124 9.02381 2.63215 9.37194 2.905 9.69434C2.64755 10.0662 2.45881 10.4812 2.34771 10.9196C2.22071 11.5916 2.27807 12.2854 2.51371 12.9274C2.61707 13.2155 2.7495 13.4923 2.90896 13.7535C2.90896 13.7535 2.90896 13.797 2.90896 13.8207C2.73971 15.2283 3.34438 16.6175 4.48993 17.4529C4.67586 17.5893 4.87135 17.7122 5.07488 17.8205C5.27161 18.3858 5.63209 18.8797 6.11042 19.2394C6.45967 19.5135 6.85067 19.7297 7.26848 19.8797C7.75324 20.5374 8.45205 21.0056 9.24469 21.2038C9.456 21.2628 9.67132 21.3064 9.88893 21.3342L9.92451 21.3698C10.3542 21.7932 10.8826 22.1029 11.462 22.2709C11.3649 22.9046 11.4204 23.5523 11.624 24.1602H34.5758C34.5873 23.3952 34.3847 22.6423 33.9908 21.9864L33.9552 21.9389C34.2727 19.6506 32.745 17.5136 30.4771 17.0735C30.3625 17.0735 30.2439 17.034 30.1253 17.0221H30.0779C29.2527 16.2237 28.2899 15.581 27.2361 15.125C27.2361 15.0617 27.2598 15.0024 27.2756 14.9471H27.3231C28.4729 14.5263 29.2957 13.5042 29.4613 12.2911C29.5829 11.3332 29.3449 10.3643 28.7934 9.57181C28.7934 9.57181 28.7934 9.54414 28.7934 9.53229C28.9523 8.38013 28.7478 7.2071 28.2084 6.17668C27.8119 5.44312 27.1935 4.85377 26.4417 4.49295C26.2362 3.80523 25.3627 3.28351 24.4299 3.30722C23.6908 3.32698 22.8845 3.67084 22.5841 4.23999C20.7868 4.87749 19.4844 6.45007 19.1929 8.3347C18.3786 8.92972 17.8593 9.84596 17.767 10.8503C17.6748 11.8546 18.0185 12.8501 18.7107 13.5835C17.6246 13.5925 16.5419 13.7064 15.4777 13.9234H15.4342C14.3916 13.1771 13.0763 12.9203 11.8296 13.2199C11.782 13.2312 11.7375 13.2528 11.6991 13.2831C11.3378 13.175 10.9674 13.0996 10.5925 13.0578H10.5134C10.3404 12.4951 10.034 11.9826 9.62017 11.5638L9.55298 11.5045C9.49605 11.1566 9.41952 10.8122 9.32374 10.473C9.1758 9.94087 8.88459 9.45963 8.48187 9.08171C8.19796 8.81274 7.86882 8.59599 7.50958 8.44142C7.54804 8.33685 7.57973 8.22991 7.60443 8.12127C7.60828 8.09374 7.60828 8.0658 7.60443 8.03827C7.60443 8.03827 7.73882 6.74978 7.89296 5.99092C7.89296 5.99092 7.89296 5.99092 7.89296 5.96325C8.30797 3.36256 8.31192 3.32303 8.31587 3.29536C8.33346 3.05984 8.25178 2.82769 8.09058 2.65507C7.87046 2.43053 7.56701 2.30744 7.25267 2.31516C6.78507 2.31767 6.35303 2.56519 6.11437 2.96731C5.96667 3.21515 5.85112 3.48078 5.77051 3.7578C5.33574 2.91988 4.77055 1.81321 4.36345 1.01482L4.33973 0.97134C4.15574 0.654647 3.82414 0.452413 3.45834 0.433811C3.32314 0.434749 3.18923 0.460192 3.0631 0.508907C2.87117 0.34202 2.62577 0.249469 2.37143 0.248047C2.23693 0.249084 2.10347 0.271771 1.97619 0.315238C1.5217 0.45759 1.21888 0.886718 1.23708 1.36263C0.888231 1.48754 0.632244 1.7887 0.565171 2.15311C0.535004 2.34139 0.544427 2.53388 0.592838 2.71831C0.592838 2.71831 0.592838 2.75388 0.6126 2.79341L0.58098 2.84084C0.324073 3.23608 0.185738 3.98309 1.15408 6.42173Z" fill="#231F20"></path> <path d="M33.8406 24.1602H32.9316C33.2297 23.8056 33.4686 23.4052 33.6391 22.9745C33.7777 23.3542 33.846 23.756 33.8406 24.1602Z" fill="white"></path> <path d="M18.8965 14.3345C19.0792 14.3469 19.2597 14.3814 19.434 14.4372C19.77 14.5637 20.4419 15.2277 20.8055 15.2633C20.8688 15.2633 21.0348 15.2317 20.8569 15.1052C20.8055 15.0696 20.3826 14.71 20.5407 14.5005C20.5845 14.432 20.6678 14.4 20.7463 14.4214C21.2759 14.5519 21.7146 14.627 21.8648 14.6467C21.9279 14.6735 21.9993 14.6735 22.0624 14.6467C22.1019 14.6151 22.0624 14.5914 21.9715 14.5637C21.1356 14.3602 20.3431 14.0081 19.6317 13.5242C18.7949 12.9 18.3537 11.8776 18.4736 10.8405C18.5652 10.0855 18.9605 9.40042 19.5684 8.94338C19.799 8.79543 20.0473 8.67724 20.3075 8.59161C20.604 8.4849 20.1218 8.40585 20.0862 8.4019C19.9597 8.38213 19.9558 8.2517 20.0546 7.86437C20.4484 6.466 21.5147 5.35674 22.8964 4.90795C23.1087 4.84005 23.3252 4.78592 23.5446 4.7459C23.8291 4.70243 23.7224 4.57595 23.3983 4.53643C23.3983 4.53643 23.2877 4.53643 23.339 4.45738C23.3875 4.40249 23.4434 4.3546 23.505 4.31509C23.7866 4.14441 24.1086 4.05166 24.4378 4.04633C25.1018 4.04633 25.6749 4.39809 25.7421 4.74195C25.7421 4.74195 25.7658 4.80914 25.6868 4.8131C25.6077 4.81705 25.4575 4.87238 25.6314 4.95934C25.6749 4.9791 25.8488 5.03443 26.0978 5.14905H26.1374C26.6354 5.37829 28.1966 6.33478 28.0819 9.00662C28.0819 9.08962 28.0819 9.16866 28.0819 9.24771C28.0819 9.32676 28.0819 9.39791 28.0582 9.46905C27.912 9.46905 27.8488 9.51648 27.9515 9.61924C28.0876 9.77714 28.2081 9.9479 28.3112 10.1291C28.6772 10.7466 28.8287 11.4678 28.742 12.1804C28.6379 12.988 28.1508 13.6958 27.4337 14.0815C26.918 14.3665 26.3644 14.5768 25.7895 14.706C25.6314 14.7416 25.7065 14.9471 26.4298 14.9352C26.4931 14.9352 26.6235 14.9352 26.663 15.0222C26.746 15.1763 26.6037 15.4807 26.2875 15.6664C25.9714 15.8522 26.2322 15.8601 26.6116 15.7494C26.7623 15.7611 26.9096 15.8 27.0464 15.8641C28.3554 16.4508 29.4967 17.3557 30.3664 18.4964C31.1569 19.6505 31.4613 20.5595 31.2083 21.1287C31.0027 21.4856 30.6439 21.7277 30.236 21.7848C27.4337 22.2235 22.5683 21.4528 19.2088 20.4647C18.4368 20.2291 17.6804 19.9453 16.944 19.6149C17.6824 17.9403 17.385 15.9897 16.1812 14.6111L16.1298 14.5558C17.0439 14.4015 17.9695 14.3262 18.8965 14.3305" fill="white"></path> <path d="M32.6233 19.3303C33.6466 20.8538 33.3681 22.902 31.9751 24.0969C32.0275 23.365 31.8189 22.6383 31.3862 22.0456C31.6006 21.8789 31.7703 21.6616 31.8802 21.4132C32.2518 20.5832 31.9474 19.437 30.9672 18.0497L30.904 17.9667C31.6082 18.2315 32.2112 18.7114 32.6272 19.3382" fill="white"></path> <path d="M15.6279 15.1052C16.7468 16.3736 16.9283 18.2158 16.0784 19.6782C15.2141 21.1881 13.47 21.9625 11.7703 21.5911C11.5441 21.5328 11.3243 21.4521 11.1142 21.35C11.2673 21.3264 11.419 21.2947 11.5687 21.2552C12.8898 20.8289 13.9218 19.788 14.3366 18.4633C14.7515 17.1386 14.4976 15.695 13.6556 14.5914C13.4307 14.3056 13.1642 14.0552 12.8651 13.8483C13.9228 13.8607 14.9267 14.3167 15.6318 15.1052" fill="white"></path> <path d="M13.0785 15.0498C13.6256 15.7593 13.8764 16.6533 13.7781 17.5438C13.6682 18.942 12.7156 20.1313 11.375 20.5437C10.4079 20.8119 9.37225 20.6536 8.5293 20.1089C10.1686 20.0455 11.5983 18.976 12.122 17.4213C12.3775 16.6311 12.3608 15.7781 12.0746 14.9985C11.9453 14.6456 11.7597 14.3159 11.5252 14.0222C12.1354 14.199 12.6772 14.5575 13.0785 15.0498Z" fill="white"></path> <path d="M10.6123 15.0934C10.6696 14.7992 10.6961 14.4998 10.6913 14.2001C11.4828 14.9797 11.7659 16.1395 11.4225 17.1961C10.9381 18.6955 9.4135 19.6001 7.86532 19.3067C7.16141 19.1507 6.52981 18.764 6.07092 18.2079C6.85043 18.3777 7.66364 18.2975 8.39495 17.9787C9.56309 17.4413 10.3901 16.3612 10.6044 15.0934" fill="white"></path> <path d="M9.50956 12.6349C9.91348 13.3367 10.0457 14.1623 9.88109 14.955C9.71036 15.9836 9.04349 16.862 8.09855 17.3028C7.03704 17.7526 5.81482 17.589 4.90894 16.8759C4.17248 16.3444 3.69567 15.5258 3.59674 14.623C3.67184 14.6902 3.75089 14.7534 3.82993 14.8127C4.43151 15.2348 5.15038 15.4574 5.88519 15.4491C6.21455 15.4508 6.54273 15.4096 6.86144 15.3265C7.85948 15.0864 8.7069 14.4303 9.18942 13.5242C9.33354 13.2458 9.43987 12.9494 9.50561 12.6429" fill="white"></path> <path d="M1.20942 3.20448L1.24104 3.18472C1.26607 3.16164 1.2957 3.14413 1.32799 3.13334H1.45842C1.48199 3.12963 1.50599 3.12963 1.52956 3.13334C1.78934 3.28519 1.94888 3.56363 1.94852 3.86453C2.03163 4.51309 2.25994 5.13455 2.61648 5.68265C2.64034 5.71773 2.6776 5.74142 2.71948 5.74815C2.76136 5.75488 2.80417 5.74406 2.83782 5.71822C2.87352 5.695 2.89801 5.65804 2.9055 5.61611C2.91299 5.57418 2.9028 5.53103 2.87734 5.49689C2.54941 4.98581 2.34008 4.40779 2.26472 3.80525C2.24941 3.3924 2.00779 3.0216 1.63628 2.84086C1.55969 2.81051 1.47746 2.79703 1.39518 2.80133C1.35819 2.72048 1.3265 2.6373 1.30032 2.55233C1.26871 2.414 1.20547 2.15709 1.5098 2.03852H1.56909H1.60071C1.82204 2.0148 2.11057 2.11361 2.39119 3.14915C2.60107 3.82688 2.90437 4.47206 3.29235 5.06607C3.32054 5.11328 3.37175 5.1419 3.42673 5.14117C3.45756 5.13932 3.48745 5.12981 3.51368 5.1135C3.55522 5.09048 3.58421 5.05001 3.59264 5.00327C3.60107 4.95653 3.58804 4.90848 3.55716 4.8724C3.198 4.30116 2.91374 3.68613 2.71134 3.04243C2.62522 2.59821 2.41564 2.18725 2.10662 1.8567C2.06709 1.74604 2.01967 1.62351 2.00386 1.58399C1.95247 1.42984 1.90109 1.09389 2.19357 0.995076C2.25109 0.977357 2.31143 0.970652 2.37143 0.975314C2.56325 0.996513 2.72126 1.13556 2.76667 1.32313L2.79829 1.39032L4.11445 4.55226C4.12294 4.57477 4.13646 4.59505 4.15397 4.61154C4.20683 4.65251 4.28041 4.6536 4.33445 4.61421C4.38849 4.57483 4.40999 4.50445 4.38717 4.44159L3.10263 1.3666C3.12849 1.29979 3.1796 1.24584 3.24492 1.21641C3.31019 1.1801 3.38365 1.16105 3.45835 1.16108C3.57476 1.16278 3.68279 1.22198 3.74687 1.31917C3.74687 1.31917 5.45037 4.65897 5.77051 5.23603C5.67942 5.39055 5.60015 5.55174 5.53337 5.71822C5.50965 5.80517 5.56894 5.88027 5.60846 5.80122C5.71641 5.6465 5.83389 5.49866 5.96023 5.35855V5.33879C6.03928 5.1965 6.28828 4.5483 6.38709 4.32302C6.46047 3.97932 6.58575 3.6488 6.75862 3.34282C6.86025 3.14518 7.0621 3.01921 7.28429 3.01476C7.47796 3.01476 7.6321 3.10962 7.6242 3.21239C7.6242 3.25586 7.2092 5.83679 7.2092 5.83679C7.09853 6.37432 7.00367 7.149 6.95229 7.59562C6.9463 7.70422 6.93442 7.81241 6.91672 7.91972C6.91578 7.93024 6.91578 7.94082 6.91672 7.95134C6.91672 7.95134 6.91672 7.97901 6.91672 8.01853C6.8622 8.2573 6.78134 8.48928 6.67562 8.7102L6.79024 9.33864C6.84557 9.59555 6.90486 9.87617 6.92462 9.95917C7.02343 10.307 6.89695 10.5125 6.96019 10.5797C7.02343 10.6469 7.26848 10.2161 7.32382 9.97498C7.34268 9.686 7.31193 9.39591 7.23291 9.1173C7.50127 9.24316 7.74594 9.4143 7.9562 9.62321C8.27112 9.91477 8.49835 10.2885 8.61231 10.7022C8.72943 11.1037 8.80883 11.5152 8.84945 11.9314C8.83762 13.226 7.92958 14.3393 6.66376 14.6112C6.40565 14.6778 6.13982 14.7097 5.87328 14.706C5.2923 14.715 4.72348 14.5392 4.24883 14.2041C3.33423 13.4495 2.88386 12.2695 3.0631 11.0975C3.14089 10.7737 3.27465 10.4661 3.45835 10.1884C3.55153 10.2457 3.65099 10.2922 3.75478 10.3267L3.81406 10.6113C3.81406 10.6429 3.98402 11.4374 4.29231 11.6785C4.45987 11.7846 4.6553 11.8383 4.85355 11.8326C4.94841 11.8326 5.16579 11.8326 5.20136 11.7299C5.2169 11.6954 5.20715 11.6547 5.17765 11.631C5.14932 11.6065 5.11731 11.5865 5.08279 11.5718C4.93655 11.4927 4.65988 11.3425 4.6006 11.0698C4.56898 10.9196 4.4425 10.3821 4.3674 10.0659C4.67569 9.82084 4.70731 9.55207 4.30417 9.63507C4.07008 9.66756 3.83374 9.59361 3.65992 9.4335C2.84967 8.72601 1.9999 6.54428 1.82995 6.1767C1.14223 4.40602 0.995988 3.46534 1.20942 3.20448Z" fill="white"></path> <path d="M12.1892 22.4132C12.3402 22.429 12.492 22.4369 12.6438 22.437C14.24 22.4119 15.7202 21.5978 16.5962 20.2631C17.3685 20.6092 18.1619 20.9063 18.9716 21.1524C20.9247 21.7167 22.9188 22.1276 24.9358 22.3816C26.0641 22.532 27.2006 22.6125 28.3388 22.6227C29 22.6265 29.6605 22.5816 30.3151 22.4883C30.4497 22.4702 30.5821 22.4384 30.7103 22.3935C31.1124 22.8892 31.2976 23.5261 31.2241 24.1602H12.4303C12.1765 23.6153 12.0925 23.0066 12.1892 22.4132Z" fill="white"></path> <path fill-rule="evenodd" clip-rule="evenodd" d="M22.5486 9.73387C22.63 9.83261 22.7365 9.90768 22.8569 9.95125C22.9623 9.98987 23.0728 10.0125 23.1849 10.0184C23.2837 10.0239 23.3826 10.0239 23.4814 10.0184C23.9398 10.0184 24.3746 9.2912 24.3904 8.59952C24.3904 7.97109 24.3193 7.48494 23.8647 7.20432C23.8176 7.17384 23.7672 7.14865 23.7145 7.12922C23.5163 7.059 23.3017 7.04937 23.098 7.10156C22.8665 7.17255 22.6721 7.33148 22.5565 7.54423C22.4321 7.76132 22.3453 7.99783 22.2996 8.24381C22.2463 8.48911 22.2343 8.74156 22.264 8.99081C22.2901 9.25962 22.3885 9.51637 22.5486 9.73387ZM22.4616 8.61928C22.4893 8.32285 22.6592 7.38612 23.4102 7.46122C23.849 7.49662 24.1847 7.86692 24.177 8.30704V8.35447C24.2083 8.64352 24.1662 8.93581 24.0545 9.20424C24.0198 9.29532 23.9761 9.38271 23.924 9.4651C23.8366 9.64904 23.6686 9.78193 23.4695 9.82477H23.426C23.7235 9.62865 23.9065 9.29959 23.9161 8.94338C23.9675 8.39004 23.7027 7.91179 23.3272 7.88018C23.1389 7.8745 22.9595 7.95983 22.845 8.10942C22.9962 8.13163 23.1057 8.26511 23.098 8.4177C23.1202 8.57348 23.0185 8.72004 22.8648 8.75366C22.7418 8.75011 22.6381 8.66118 22.6158 8.54023C22.5871 8.63282 22.5686 8.72823 22.5604 8.8248C22.5225 9.12232 22.5988 9.42314 22.7739 9.66667C22.7509 9.64761 22.7297 9.62644 22.7106 9.60343C22.5759 9.42237 22.4939 9.20764 22.4735 8.9829C22.4615 8.86199 22.4615 8.74019 22.4735 8.61928H22.4616ZM26.75 11.3978C26.7184 11.3702 26.7421 11.3109 26.8211 11.3109L26.829 11.3228C26.9045 11.3383 26.9694 11.3859 27.0069 11.4532C27.0298 11.5184 27.0298 11.5895 27.0069 11.6548C26.9911 11.7338 26.9397 11.8247 26.8962 11.8168C26.8528 11.8089 26.8528 11.7496 26.8528 11.6824C26.7307 11.7481 26.5599 11.825 26.4305 11.8832L26.4305 11.8832L26.4305 11.8832L26.4304 11.8833L26.4304 11.8833C26.3419 11.9231 26.2729 11.9542 26.252 11.967C26.165 12.0204 26.0818 12.0798 26.003 12.1449C25.8779 12.2546 25.7459 12.3563 25.6077 12.4492C25.4106 12.5733 25.1899 12.6554 24.9596 12.6903C24.5007 12.7625 24.0309 12.6805 23.6236 12.4571C23.4183 12.3328 23.2309 12.1812 23.0663 12.0065C22.9445 11.847 22.7928 11.7128 22.6197 11.6113C22.4081 11.5427 22.202 11.4581 22.0031 11.3583C21.9341 11.3345 21.8879 11.2693 21.8885 11.1963C21.8904 11.1455 21.9165 11.0987 21.9588 11.0705C22.0011 11.0423 22.0544 11.0362 22.102 11.054L22.1968 11.1014L22.3905 11.1884C23.1267 11.4903 23.9054 11.6756 24.6987 11.7378C25.1808 11.7828 25.667 11.7562 26.1413 11.6587C26.3333 11.6171 26.5201 11.5548 26.6986 11.4729L26.7816 11.4295C26.7743 11.4161 26.7634 11.4051 26.75 11.3978ZM25.1532 12.3464C24.9461 12.4098 24.7282 12.43 24.5129 12.4057C24.2998 12.3892 24.0912 12.3357 23.8964 12.2476C23.6783 12.137 23.4826 11.9869 23.3193 11.8049C24.0921 12.0093 24.8943 12.0788 25.6908 12.0105C25.5274 12.1472 25.3396 12.2518 25.1374 12.3188L25.1532 12.3464ZM22.0901 10.7378C22.1138 10.7378 22.2126 10.7378 22.2126 10.801L22.2205 10.8129C22.2363 10.8761 22.1771 10.9196 22.1336 10.9196C21.9916 10.9336 21.8575 10.9916 21.7502 11.0856C21.7095 11.1262 21.6832 11.1789 21.6751 11.2358C21.6752 11.2692 21.6492 11.2969 21.6158 11.299C21.5905 11.2995 21.5662 11.2895 21.5486 11.2714C21.5339 11.2582 21.5254 11.2396 21.5249 11.22C21.5464 11.0247 21.6742 10.8573 21.8569 10.7852C21.9307 10.754 22.01 10.7379 22.0901 10.7378ZM27.2717 8.18057C27.2189 7.94774 27.0771 7.74485 26.8765 7.61537C26.6991 7.51425 26.4949 7.47009 26.2915 7.4889C26.2381 7.49562 26.1853 7.50619 26.1334 7.52052C25.6394 7.67861 25.4378 8.12128 25.2916 8.72996C25.1453 9.33863 25.3548 10.1805 25.7817 10.3109C25.8736 10.3384 25.9674 10.3595 26.0623 10.3742C26.1684 10.3898 26.2763 10.3898 26.3824 10.3742C26.5073 10.3652 26.6269 10.3199 26.7263 10.2437C26.9286 10.0787 27.084 9.8633 27.1769 9.61925C27.2708 9.38768 27.3243 9.14169 27.335 8.89201C27.3517 8.65301 27.3303 8.41288 27.2717 8.18057ZM26.9872 9.55996C27.0338 9.45079 27.0683 9.33679 27.0899 9.22005L27.086 9.23586C27.1374 8.93943 27.2124 7.99875 26.4931 7.88413C26.0688 7.81015 25.6608 8.081 25.5643 8.50071V8.54814C25.4666 8.81321 25.4341 9.09788 25.4694 9.37815C25.4812 9.4745 25.501 9.5697 25.5287 9.66272C25.5653 9.83426 25.662 9.98707 25.8014 10.0935C25.5992 9.84255 25.5079 9.52004 25.5485 9.20029C25.5578 9.10388 25.5763 9.00859 25.6038 8.91572C25.6257 9.03308 25.7256 9.11988 25.8449 9.12519C25.9793 9.12124 26.09 8.9671 26.0781 8.79319C26.0662 8.61928 25.9595 8.4849 25.8291 8.4849C25.9397 8.33498 26.1172 8.24922 26.3034 8.25566C26.671 8.28333 26.9279 8.76157 26.8765 9.31096C26.8578 9.66345 26.6749 9.98677 26.3824 10.1844C26.4584 10.1731 26.5303 10.1433 26.5919 10.0975C26.7697 9.95719 26.9062 9.77147 26.9872 9.55996Z" fill="#231F20"></path> </svg>
