<?xml version="1.0" encoding="UTF-8"?>
<svg role="img" xmlns="http://www.w3.org/2000/svg" viewBox="0 0 549 79" fill="none"> <title>Shop Yokohama brand tires</title> <path d="M169.049 9.48828L156.819 34.4683L144.599 9.48828H132.789L151.469 45.1883V67.0283H162.179V45.1883L180.849 9.48828H169.049Z" fill="black"></path> <path d="M432.83 26.2383V67.0283H421.98V9.48828H436.54L451.51 50.6883L466.2 9.48828H480.76V67.0283H469.91V26.2383L455.35 67.0283H447.39L432.83 26.2383Z" fill="black"></path> <path d="M244.43 42.3083L262.7 67.0283H275.05L253.22 36.9483L273.96 9.48828H261.19L244.43 33.1083V9.48828H234V67.0283H244.43V42.3083Z" fill="black"></path> <path d="M336.15 32.1283H356.05L356.07 9.48828H366.51V67.0283H356.07V42.9883H336.22L336.16 67.0283H325.73V9.48828H336.16L336.15 32.1283Z" fill="black"></path> <path fill-rule="evenodd" clip-rule="evenodd" d="M492.121 66.9983L497.891 51.9383L518.271 51.9083L524.001 66.9983H535.001L512.301 9.48828H503.651L481.121 66.9983H492.121ZM514.327 41.2083L514.331 41.2183L514.381 41.2083H514.327ZM514.327 41.2083L508.051 25.1383L502.001 41.2083H514.327Z" fill="black"></path> <path fill-rule="evenodd" clip-rule="evenodd" d="M7.46 0L46.65 39.18L7.9 78.31H0.43L39.18 39.18L0 0H7.46ZM20.09 0L59.27 39.18L20.52 78.31H13.06L51.81 39.18L12.63 0H20.09ZM32.72 0L71.9 39.18L33.15 78.31H25.69L64.44 39.18L25.26 0H32.72ZM45.35 0L84.53 39.18L45.78 78.31H38.32L77.07 39.18L37.89 0H45.35ZM87.26 29L84.65 26.47L111.06 0H103.75L80.9 22.71L78.31 20.19L98.49 0H91.17L74.59 16.45L72 13.91L85.86 0H78.54L68.22 10.18L58 0H50.58L89.76 39.18L51 78.31H58.47L136.33 0H129L93.52 35.37L90.91 32.8L123.7 0H116.38L87.26 29Z" fill="#CC3333"></path> <path fill-rule="evenodd" clip-rule="evenodd" d="M378.352 66.9983L384.132 51.9383V51.9083H404.482L410.202 66.9983H421.202L398.542 9.48828H389.892L367.352 66.9983H378.352ZM394.282 25.1083L400.552 41.1783H388.192L394.282 25.1083Z" fill="black"></path> <path fill-rule="evenodd" clip-rule="evenodd" d="M294.281 7.83984C278.051 7.83984 264.891 21.4298 264.891 38.1898C264.891 54.9998 278.051 68.5398 294.281 68.5398C310.511 68.5398 323.661 54.9498 323.661 38.1898C323.661 21.4298 310.511 7.83984 294.281 7.83984ZM294.281 18.4098C283.891 18.4098 275.471 27.2398 275.471 38.1198C275.471 48.9998 283.891 57.8298 294.281 57.8298C304.671 57.8298 313.091 48.9998 313.091 38.1198C313.091 27.2398 304.671 18.4098 294.281 18.4098Z" fill="black"></path> <path fill-rule="evenodd" clip-rule="evenodd" d="M202.691 7.83984C186.461 7.83984 173.301 21.4298 173.301 38.1898C173.301 54.9998 186.461 68.5398 202.691 68.5398C218.921 68.5398 232.081 54.9498 232.081 38.1898C232.081 21.4298 218.921 7.83984 202.691 7.83984ZM202.691 18.4098C192.301 18.4098 183.881 27.2398 183.881 38.1198C183.881 48.9998 192.301 57.8298 202.691 57.8298C213.081 57.8298 221.501 48.9998 221.501 38.1198C221.501 27.2398 213.081 18.4098 202.691 18.4098Z" fill="black"></path> <path fill-rule="evenodd" clip-rule="evenodd" d="M540.781 64.6783H539.781V57.5883H542.981C543.427 57.5706 543.871 57.6526 544.281 57.8283C544.94 58.1106 545.344 58.7841 545.281 59.4983C545.33 60.2117 544.931 60.8806 544.281 61.1783C544.524 61.2717 544.737 61.4268 544.901 61.6283C545.065 61.8921 545.148 62.1979 545.141 62.5083V63.5083C545.141 63.7103 545.165 63.9117 545.211 64.1083C545.234 64.2952 545.351 64.4575 545.521 64.5383V64.6983H544.341C544.305 64.622 544.278 64.5414 544.261 64.4583V63.8983L544.201 62.7283C544.223 62.354 544.034 61.9989 543.711 61.8083C543.447 61.7067 543.164 61.6624 542.881 61.6783H540.781V64.6783ZM540.781 58.4483V60.8583L542.901 60.8683C543.254 60.8838 543.604 60.7895 543.901 60.5983C544.194 60.3543 544.338 59.9751 544.281 59.5983C544.328 59.1874 544.118 58.79 543.751 58.5983C543.517 58.4876 543.26 58.4361 543.001 58.4483H540.781Z" fill="black"></path> <path fill-rule="evenodd" clip-rule="evenodd" d="M540.371 66.3967C538.253 65.5191 536.871 63.4516 536.871 61.1583C536.877 58.0291 539.412 55.4938 542.541 55.4883C544.834 55.4883 546.902 56.8697 547.779 58.9885C548.657 61.1072 548.172 63.546 546.55 65.1676C544.929 66.7892 542.49 67.2743 540.371 66.3967ZM540.663 56.5934C538.816 57.3574 537.611 59.1593 537.611 61.1583C537.608 62.4675 538.127 63.7241 539.052 64.6508C539.976 65.5775 541.232 66.0983 542.541 66.0983C544.54 66.1023 546.344 64.9013 547.112 63.0557C547.88 61.21 547.46 59.0836 546.048 57.6687C544.636 56.2538 542.51 55.8293 540.663 56.5934Z" fill="black"></path> </svg>
