<svg xmlns="http://www.w3.org/2000/svg" width="82" height="60" viewBox="0 0 81.3 59.6" fill="none" focusable="false" role="img">
  <title>Price tag with checkmark</title>
  <path fill="#397B23" d="M25.2,0c2.2,0,4.3.9,5.8,2.4l13.8,13.8c-1.7,1.2-3.2,2.6-4.6,4.1l-13.6-13.6c-.4-.4-.9-.6-1.4-.6H6.1v19.1c0,.5.2,1.1.6,1.4l22.5,22.5c.8.8,2.1.8,2.9,0l3.3-3.3c.7,2,1.7,4,2.9,5.7l-1.9,1.9c-3.2,3.2-8.4,3.2-11.6,0L2.4,31c-1.5-1.5-2.4-3.6-2.4-5.8V6.1C0,2.7,2.7,0,6.1,0h19.1ZM14.3,10.2c1.1,0,2.1.4,2.9,1.2.8.8,1.2,1.8,1.2,2.9,0,1.1-.4,2.1-1.2,2.9-.8.8-1.8,1.2-2.9,1.2-1.1,0-2.1-.4-2.9-1.2-.8-.8-1.2-1.8-1.2-2.9,0-1.1.4-2.1,1.2-2.9s1.8-1.2,2.9-1.2Z"/>
  <path fill="#397B23" d="M59.3,19.8c4.7,0,9.3,1.9,12.6,5.2,3.3,3.3,5.2,7.9,5.2,12.6s-1.9,9.3-5.2,12.6c-3.3,3.3-7.9,5.2-12.6,5.2s-9.3-1.9-12.6-5.2c-3.3-3.3-5.2-7.9-5.2-12.6s1.9-9.3,5.2-12.6c3.3-3.3,7.9-5.2,12.6-5.2ZM59.3,59.6c5.8,0,11.4-2.3,15.5-6.4s6.4-9.7,6.4-15.5-2.3-11.4-6.4-15.5c-4.1-4.1-9.7-6.4-15.5-6.4s-11.4,2.3-15.5,6.4c-4.1,4.1-6.4,9.7-6.4,15.5s2.3,11.4,6.4,15.5c4.1,4.1,9.7,6.4,15.5,6.4ZM69,33.6c.8-.8.8-2.1,0-2.9-.8-.8-2.1-.8-2.9,0l-9.5,9.5-4-4c-.8-.8-2.1-.8-2.9,0-.8.8-.8,2.1,0,2.9l5.5,5.5c.8.8,2.1.8,2.9,0l11-11Z"/>
</svg>
