<svg xmlns="http://www.w3.org/2000/svg" aria-hidden="true" focusable="false" viewBox="0 0 18 17">
  <path fill="#333" d="M16 .334H2c-1.105 0-2 .895-2 2v9c0 1.105.895 2 2 2h4.634l-.3 1.5H4.75c-.413 0-.75.338-.75.75s.337.75.75.75h8.5c.414 0 .75-.336.75-.75s-.336-.75-.75-.75h-1.585l-.299-1.5H16c1.105 0 2-.895 2-2v-9c0-1.105-.897-2-2-2Zm-5.866 14.5H7.866l.3-1.5h1.67l.298 1.5Zm6.366-3.5c0 .276-.224.5-.5.5H2c-.276 0-.5-.224-.5-.5v-1.5h15v1.5Zm0-3H1.5v-6c0-.276.224-.5.5-.5h14c.276 0 .5.224.5.5v6Z"/>
</svg>
