<svg xmlns="http://www.w3.org/2000/svg" aria-hidden="true" focusable="false" viewBox="0 0 20 17">
  <path fill="#333" d="M0 6.141c0-.2.05-.397.147-.572l2.428-4.453C2.838.634 3.341.334 3.891.334h12.218c.55 0 1.053.3 1.316.782l2.428 4.45c.097.175.147.372.147.572 0 .659-.534 1.193-1.194 1.193H18v8.253c0 .416-.334.75-.75.75s-.75-.334-.75-.75v-8.25H12v7.75c0 .691-.559 1.25-1.25 1.25h-7.5C2.559 16.334 2 15.775 2 15.084v-7.75h-.806C.534 7.334 0 6.8 0 6.141Zm3.5 1.193v3h7v-3h-7Zm12.609-5.5H3.891l-2.182 4h16.582l-2.182-4ZM3.5 14.834h7v-3h-7v3Z"/>
</svg>
